<svg version="1.1" xmlns="http://www.w3.org/2000/svg" xmlns:xlink="http://www.w3.org/1999/xlink" width="700" height="700" viewBox="610,130.5,700,700"><path d="M919,383c0,0 -24,-11 -25,-35c-1,-24 -5,-68 -5,-68l95,-2c0,0 9,47 -2,71c-11,24 -22,36 -22,36l-5,168h-34z" id="Path 1"></path><path d="M1118,276c16,2 35,47 35,47c0,0 -24,49 -24,66c0,17 22,164 22,164l-63,2c0,0 19,-153 18,-168c-1,-15 -29,-51 -30,-64c-1,-13 26,-49 42,-47z" id="Path 1"></path><path d="M950,732l-255,-297c0,0 26,146 45,169c19,23 68,23 68,23l134,118z" id="Path 1"></path></svg>