<svg xmlns="http://www.w3.org/2000/svg" xmlns:xlink="http://www.w3.org/1999/xlink" version="1.1" width="380.70579px" height="261.85909px" viewBox="0 0 380.70579 261.85909"><path d="M622,399.35909v-261.85909h380.70579v261.85909z" id="Path 1" fill-opacity="0" fill="#000000" class="bin" transform="translate(-622 -137.5)"></path><g transform="translate(-979.456489496294 429.29620338334166) rotate(315)"><path d="M981.41902,508.65355c0,0 -19.64933,-8.20641 -20.46805,-26.11131c-0.81872,-17.9049 -4.09361,-50.73054 -4.09361,-50.73054l77.7786,-1.49207c0,0 7.3685,35.06375 -1.63744,52.96865c-9.00594,17.9049 -18.01189,26.85734 -18.01189,26.85734l-4.09361,125.33427h-27.83655z" id="Path 1"></path></g><g transform="translate(1037.2446395000002 645.2645869999999) rotate(180)"><path d="M959.26811,633.06632l-208.77415,-221.57308c0,0 21.28678,108.92145 36.8425,126.0803c15.55572,17.15886 55.67311,17.15886 55.67311,17.15886l109.70877,88.0324z" id="Path 1"></path></g><g transform="translate(-830.304722650144 1037.3146227320558) rotate(292.5)"><path d="M1144.34473,428.82756c13.09955,1.49207 28.65527,35.06375 28.65527,35.06375c0,0 -19.64933,36.55583 -19.64933,49.23846c0,12.68263 18.01189,122.35012 18.01189,122.35012l-51.57949,1.49207c0,0 15.55572,-114.14371 14.737,-125.33427c-0.81872,-11.19056 -23.74294,-38.0479 -24.56166,-47.74639c-0.81872,-9.69848 21.28678,-36.55583 34.38633,-35.06375z" id="Path 1"></path></g></svg>